<svg
              t="1711976556258"
              viewBox="0 0 1024 1024"
              version="1.1"
              xmlns="http://www.w3.org/2000/svg"
              p-id="4395"
              width="20"
              height="20"
            >
              <path
                d="M512 62c247.5 0 450 202.5 450 450s-202.5 450-450 450-450-202.5-450-450 202.5-450 450-450z m28.125 421.875V287c0-16.875-11.25-28.125-28.125-28.125s-28.125 11.25-28.125 28.125v196.875H287c-16.875 0-28.125 11.25-28.125 28.125s11.25 28.125 28.125 28.125h196.875V737c0 16.875 11.25 28.125 28.125 28.125s28.125-11.25 28.125-28.125V540.125H737c16.875 0 28.125-11.25 28.125-28.125s-11.25-28.125-28.125-28.125H540.125z"
                p-id="4396"
              ></path>
            </svg>