<svg t="1715567576015" class="icon" viewBox="0 0 1024 1024" version="1.1" fill="currentColor" xmlns="http://www.w3.org/2000/svg" p-id="7287" width="200" height="200"><path d="M456.43 452c-28.79 0-52.08-14.66-71.35-29.47-21.51-16.52-44.14-37.94-48.89-71.43-4.63-32.55 8.83-68 42.33-111.62 64.31-83.7 223.77-151.2 230.53-154l51.7-21.68-7.63 55.54c-1 7.26-25.16 178.73-89.47 262.42-33.51 43.61-64.31 65.74-96.95 69.65a86.08 86.08 0 0 1-10.27 0.59z m-27.16-173.49c-28.46 37.05-30.84 55.77-29.72 63.63 1.23 8.64 8.33 17.24 24.53 29.69s26.34 17.09 35 16.05c7.88-0.95 25.36-8.06 53.82-45.1 32.8-42.68 54-118.64 65.68-172-48.58 25-116.52 65.08-149.31 107.75zM339.59 689.7c-29.14 0-61-14-99.07-43.22-83.7-64.31-151.2-223.77-154-230.53l-21.68-51.7 55.54 7.63c7.26 1 178.73 25.16 262.42 89.47 43.61 33.51 65.74 64.31 69.65 96.95 4 33.59-12.32 60.11-28.85 81.62s-37.94 44.14-71.43 48.89a88.7 88.7 0 0 1-12.58 0.89z m-60.08-94c37.05 28.46 55.77 30.84 63.63 29.72 8.64-1.23 17.24-8.33 29.69-24.53s17.09-26.33 16.05-35c-0.95-7.88-8.06-25.36-45.1-53.82-42.68-32.8-118.64-54-172-65.68 25 48.58 65.08 116.52 107.75 149.31zM365.25 960.19l7.63-55.54c1-7.26 25.16-178.73 89.47-262.42 33.51-43.61 64.31-65.74 96.95-69.65 33.59-4 60.11 12.32 81.62 28.85s44.14 37.94 48.89 71.43c4.63 32.55-8.83 68-42.33 111.62-64.31 83.7-223.77 151.2-230.53 154zM569.29 636a20.66 20.66 0 0 0-2.37 0.14c-7.88 1-25.36 8.06-53.82 45.1-32.8 42.68-54 118.64-65.68 172 48.58-25 116.52-65.08 149.31-107.75 28.46-37 30.84-55.77 29.72-63.63-1.23-8.64-8.33-17.24-24.53-29.69-14.74-11.32-24.46-16.17-32.63-16.17z m52.81 129zM961.19 659.75l-55.54-7.63c-7.26-1-178.73-25.16-262.42-89.47-43.61-33.51-65.74-64.31-69.65-96.95-4-33.59 12.32-60.11 28.85-81.62s37.94-44.14 71.43-48.89c32.54-4.63 68 8.83 111.62 42.33 83.7 64.31 151.2 223.77 154 230.53zM686.05 398.34a22.83 22.83 0 0 0-3.19 0.21c-8.64 1.23-17.24 8.33-29.69 24.53s-17.09 26.33-16 35c1 7.88 8.06 25.36 45.1 53.82 42.68 32.8 118.64 54 172 65.68-25-48.58-65.08-116.52-107.75-149.31-32.77-25.15-51.2-29.93-60.47-29.93z" p-id="7288"></path></svg>