<svg t="1716454316993" class="icon" viewBox="0 0 1024 1024" version="1.1" xmlns="http://www.w3.org/2000/svg" p-id="12481" width="32" height="32"><path d="M512 1024C229.229714 1024 0 794.770286 0 512S229.229714 0 512 0 1024 229.229714 1024 512 794.770286 1024 512 1024z m-54.982531-808.792816l22.465307 457.393632h76.38204l22.465306-457.393632h-121.312653z m60.207021 505.918694c-19.769469 0-35.94449 6.290286-48.525061 18.870857-14.377796 12.580571-20.668082 28.755592-20.668082 48.525061 0 19.769469 6.290286 35.94449 20.668082 48.525061 12.580571 12.580571 28.755592 19.769469 48.525061 19.76947 19.769469 0 35.94449-6.290286 50.322286-18.870858 12.580571-12.580571 19.769469-29.654204 19.769469-49.423673 0-19.769469-7.188898-35.94449-19.769469-48.525061-13.479184-12.580571-30.552816-18.870857-50.322286-18.870857z" fill="#FF3535" p-id="12482"></path></svg>