<?xml version="1.0" standalone="no"?><!DOCTYPE svg PUBLIC "-//W3C//DTD SVG 1.1//EN" "http://www.w3.org/Graphics/SVG/1.1/DTD/svg11.dtd"><svg t="1712401993284" class="icon" viewBox="0 0 1024 1024" version="1.1" xmlns="http://www.w3.org/2000/svg" p-id="1715" xmlns:xlink="http://www.w3.org/1999/xlink" width="200" height="200"><path d="M0 0h1024v1024H0z" fill-opacity=".01" p-id="1716"></path><path d="M725.333333 972.8H85.333333c-17.066667 0-34.133333-12.8-34.133333-34.133333v-170.666667c0-17.066667 12.8-34.133333 34.133333-34.133333h85.333334c51.2 0 93.866667-42.666667 93.866666-93.866667s-42.666667-93.866667-93.866666-93.866667H85.333333c-17.066667 0-34.133333-12.8-34.133333-34.133333V256c0-17.066667 12.8-34.133333 34.133333-34.133333h162.133334V213.333333c0-89.6 72.533333-162.133333 162.133333-162.133333s153.6 72.533333 153.6 162.133333v8.533334H725.333333c17.066667 0 34.133333 12.8 34.133334 34.133333v221.866667H810.666667c89.6 0 162.133333 72.533333 162.133333 162.133333 0 89.6-72.533333 162.133333-162.133333 162.133333h-51.2V938.666667c0 17.066667-17.066667 34.133333-34.133334 34.133333zM119.466667 904.533333h576V768c0-17.066667 12.8-34.133333 34.133333-34.133333h85.333333c51.2 0 93.866667-42.666667 93.866667-93.866667s-42.666667-93.866667-93.866667-93.866667h-85.333333c-17.066667 0-34.133333-12.8-34.133333-34.133333V290.133333h-162.133334c-17.066667 0-29.866667-17.066667-29.866666-34.133333V213.333333c0-51.2-42.666667-93.866667-93.866667-93.866666S307.2 162.133333 307.2 213.333333v42.666667c0 17.066667-12.8 34.133333-34.133333 34.133333H110.933333v192H170.666667c89.6 0 162.133333 72.533333 162.133333 162.133334 0 89.6-72.533333 162.133333-162.133333 162.133333H119.466667v98.133333z" p-id="1717"></path></svg>