<svg t="1715506862135" class="icon" viewBox="0 0 1024 1024" version="1.1" xmlns="http://www.w3.org/2000/svg" p-id="11132" width="200" height="200"><path d="M834.816 110.7968h-645.12a128 128 0 0 0-128 128v426.5984a128 128 0 0 0 128 128h645.12a128 128 0 0 0 128-128V238.592a128 128 0 0 0-128-127.7952z m-645.12 61.44h645.12a66.56 66.56 0 0 1 66.56 66.56v375.296H123.4944V238.592a66.56 66.56 0 0 1 66.3552-66.3552z m645.12 559.2576h-645.12a66.56 66.56 0 0 1-65.4848-56.32h776.0896a66.56 66.56 0 0 1-65.4848 56.32zM713.5232 861.0304H311.1424a30.72 30.72 0 0 0 0 61.44h402.3808a30.72 30.72 0 0 0 0-61.44z" p-id="11133"></path><path d="M295.3216 345.4464h62.1568l-40.96 143.36a30.72 30.72 0 0 0 21.0944 37.9904 30.0544 30.0544 0 0 0 8.448 1.1776 30.72 30.72 0 0 0 29.5424-22.2208l46.08-160.4096H496.128a30.72 30.72 0 0 0 0-61.44H295.3216a30.72 30.72 0 0 0 0 61.44zM573.44 502.0672a30.72 30.72 0 0 0 23.1424 25.1392 29.0304 29.0304 0 0 0 7.2192 0.8704 30.72 30.72 0 0 0 24.8832-12.6976L760.832 332.8a30.72 30.72 0 1 0-49.7152-35.84l-88.6272 121.9584-16.896-108.9024a30.72 30.72 0 0 0-60.7232 9.4208z" p-id="11134"></path></svg>