<svg t="1711032962919" class="icon" viewBox="0 0 1024 1024" version="1.1" xmlns="http://www.w3.org/2000/svg" p-id="4526" width="20" height="20"><path d="M958.0302582 397.55763037c-7.9058083-22.83900117-28.10954004-40.40746348-51.82696406-43.92115576l-234.53897256-36.01534746L570.64566377 99.77219404C560.10458604 76.93319287 537.26558487 62 511.79131513 62c-25.4742706 0-48.31327177 14.93319287-58.85434862 37.77219404L351.03988408 317.62112715 117.37933526 353.63647461c-23.71742402 3.51369229-43.92115576 20.20373174-51.82696407 43.92115576-7.9058083 22.83900117-1.75684658 49.19169463 14.93319287 65.88173408l171.29250792 176.56304678-39.52904063 245.08004942c-4.39211602 24.59584687 6.14896172 49.19169463 26.35269345 64.1248875 11.41950058 7.9058083 24.59584687 12.29792344 37.77219405 12.29792343 10.54107773 0 21.96057832-2.63526943 31.62323232-7.9058083L511.79131513 843.79657432l203.7941631 109.80288984c9.66265401 5.27053887 21.08215459 7.9058083 31.62323232 7.9058083 13.17634717 0 26.35269346-4.39211602 37.77219404-12.29792344 20.20373174-14.93319287 30.74480948-39.52904063 26.35269346-64.1248875l-39.52904063-245.08004941 172.17093076-176.56304678C959.78710479 445.87090214 965.93606651 420.39663154 958.0302582 397.55763037z" fill="#f3a034" p-id="4527"></path></svg>
