 <svg t="1711032716486" class="icon" viewBox="0 0 1024 1024" version="1.1" xmlns="http://www.w3.org/2000/svg" p-id="5055" id="mx_n_1711032716487" width="20" height="20"><path d="M968.96 414.56l-129.12-163.2c-7.68-12-20.64-16.8-35.04-16.8h-223.68c-23.04 0.48-37.92 19.2-37.92 42.72v165.12c0.48 23.04 17.76 41.28 40.8 41.28h350.4c33.12-0.48 52.32-41.28 34.56-69.12zM750.56 538.88h-166.08c-23.04 0.48-41.76 19.68-41.28 43.2v351.36c0.48 33.12 44.64 53.28 72 35.04l162.24-130.56c12-9.12 14.88-21.6 14.88-36v-221.76c-0.48-23.04-18.24-41.76-41.76-41.28zM440.48 538.88H90.56c-33.12 0-53.28 36-35.52 63.84l127.2 164.64c7.68 12.48 21.12 19.2 35.52 19.2h222.72c23.04 0 41.76-18.24 41.76-41.76v-165.12c0-22.56-18.72-40.8-41.76-40.8zM416.96 55.04L250.88 187.52c-16.8 12.96-16.8 21.6-16.8 36.48v217.92c0 23.04 19.2 42.24 42.24 41.76h165.6c23.04 0 39.84-20.16 39.84-43.2v-350.4c0.48-33.12-36.48-52.8-64.8-35.04z" p-id="5056" fill="#fb7299"></path></svg>
