<svg t="1711032641627" class="icon" viewBox="0 0 1024 1024" version="1.1" xmlns="http://www.w3.org/2000/svg" p-id="4449" id="mx_n_1711032641627" width="20" height="20"><path d="M737.84 961.23h-82.29a42.11 42.11 0 0 1-42.07-42.07V723.7c0-38.92-23.8-65.08-59.23-65.08h-69.16c-35.43 0-59.23 26.15-59.23 65.08v195.47a42.11 42.11 0 0 1-42.07 42.07H301.5c-79.27 0-143.77-64.49-143.77-143.77V488.28H48.23a29.85 29.85 0 0 1-19.11-52.78L443.51 90.28l0.34-0.26A113.33 113.33 0 0 1 582 90l0.67 0.54L996.74 435.5a29.85 29.85 0 0 1-19.11 52.79h-96v329.17c-0.02 79.28-64.52 143.77-143.79 143.77z" fill="#00c091" p-id="4450"></path></svg>
