<svg t="1711032896288" class="icon" viewBox="0 0 1024 1024" version="1.1" xmlns="http://www.w3.org/2000/svg" p-id="4273" width="20" height="20"><path d="M672.42666667 81.23733334c16.29866667-13.344 40.32-10.95466667 53.67466666 5.344 12.448 15.2 11.31733333 37.38666667-2.63466666 51.232l-57.952 57.89866666h154.98666666c72.62933333-0.032 132.32 57.29066667 135.232 129.856v448.36266667c0 74.72-60.56533333 135.28533333-135.28533333 135.28533333H205.68533333C130.976 909.20533334 70.4 848.64 70.4 773.93066667V331.09333334c0-74.72 60.56533333-135.28533333 135.28533333-135.28533334h130.58133334l-57.89866667-57.89866666c-14.944-14.83733333-15.04-38.98666667-0.20266667-53.93066667 13.84533333-13.952 36.032-15.09333333 51.232-2.63466667l2.88 2.656 111.81866667 111.81866667h113.52533333L669.44 84l2.98666667-2.76266666zM414.76266667 429.46133334v245.93066666c0.04266667 20.39466667 16.59733333 36.88533333 36.992 36.85333334 7.65866667-0.01066667 15.11466667-2.41066667 21.35466666-6.848l172.20266667-122.944c16.56533333-11.82933333 20.40533333-34.85866667 8.576-51.424a36.97813333 36.97813333 0 0 0-8.576-8.576L473.09866667 399.52c-16.608-11.82933333-39.65866667-7.95733333-51.488 8.65066667a36.9088 36.9088 0 0 0-6.848 21.23733333v0.05333334z" fill="#02b5da" p-id="4274"></path></svg>
