<svg t="1716454680016" class="icon" viewBox="0 0 1024 1024" version="1.1" xmlns="http://www.w3.org/2000/svg" p-id="14633" width="32" height="32"><path d="M512 1024C229.23264 1024 0 794.76736 0 512S229.23264 0 512 0s512 229.23264 512 512-229.23264 512-512 512z m182.51776-540.65152h-86.4256l115.79392 133.87776L839.68 483.34848h-85.8112C739.61472 349.7984 627.05664 245.76 490.31168 245.76 343.94112 245.76 225.28 364.9536 225.28 512s118.66112 266.24 265.05216 266.24a263.5776 263.5776 0 0 0 185.46688-76.04224l-43.008-40.52992a204.96384 204.96384 0 0 1-142.45888 57.40544c-113.8688 0-206.15168-92.71296-206.15168-207.07328 0-114.36032 92.28288-207.07328 206.15168-207.07328 104.16128 0 190.30016 77.6192 204.1856 178.42176z" fill="#1478F0" p-id="14634"></path></svg>