<svg t="1711895089920" viewBox="0 0 1024 1024" version="1.1" xmlns="http://www.w3.org/2000/svg" p-id="4335" width="18" height="18"><path d="M625.77777742 624.26074075H398.22222222V396.70518555h227.5555552z m0 318.57777813v-273.06666667H398.22222222v273.06666667z m45.51111147-273.06666667v273.06666667h216.17777813a56.95288853 56.95288853 0 0 0 56.88888853-56.8888896v-216.17777707zM398.22222222 78.12740741v273.06666667h227.5555552V78.12740741z m-45.51111147 318.57777814H79.64444409v227.5555552h273.06666666z m591.6444448 0H671.28888889v227.5555552h273.06666666z m-591.6444448-45.51111147V78.12740741H136.53333369a56.95288853 56.95288853 0 0 0-56.8888896 56.88888854v216.17777813z m0 318.57777813H79.64444409v216.17777707a56.95288853 56.95288853 0 0 0 56.8888896 56.8888896h216.17777706z m318.57777814-318.57777813h273.06666666V135.01629595a56.95288853 56.95288853 0 0 0-56.88888853-56.88888854H671.28888889z" p-id="4336"></path></svg>
