<svg t="1711895113397" class="icon" viewBox="0 0 1024 1024" version="1.1" xmlns="http://www.w3.org/2000/svg" p-id="4542" width="18" height="18"><path d="M206.92357428 322.6003941H39.07034557a35.44726567 35.44726567 0 0 1-35.44726569-35.44726569V119.29989969a35.44726567 35.44726567 0 0 1 35.44726569-35.44726571h167.85322871a35.44726567 35.44726567 0 0 1 35.44726571 35.44726571v167.85322872a35.44726567 35.44726567 0 0 1-35.44726571 35.44726569zM985.02580846 322.6003941H348.08709707a35.51677012 35.51677012 0 0 1-35.51677013-35.44726569V119.29989969a35.44726567 35.44726567 0 0 1 35.51677013-35.44726571h636.93871139a35.44726567 35.44726567 0 0 1 35.44726568 35.44726571v167.85322872a35.44726567 35.44726567 0 0 1-35.44726568 35.44726569zM985.02580846 631.40863228H348.08709707a35.51677012 35.51677012 0 0 1-35.51677013-35.51677014V428.10813786a35.51677012 35.51677012 0 0 1 35.51677013-35.51677014h636.93871139a35.44726567 35.44726567 0 0 1 35.44726568 35.51677014v167.78372428a35.44726567 35.44726567 0 0 1-35.44726568 35.51677014zM985.02580846 940.42538378H348.08709707a35.51677012 35.51677012 0 0 1-35.51677013-35.51677014v-167.78372426a35.44726567 35.44726567 0 0 1 35.51677013-35.44726571h636.93871139a35.44726567 35.44726567 0 0 1 35.44726568 35.44726571v167.78372426a35.44726567 35.44726567 0 0 1-35.44726568 35.51677014zM206.92357428 631.40863228H39.07034557a35.44726567 35.44726567 0 0 1-35.44726569-35.51677014V428.10813786a35.44726567 35.44726567 0 0 1 35.44726569-35.51677014h167.85322871a35.44726567 35.44726567 0 0 1 35.44726571 35.51677014v167.78372428a35.44726567 35.44726567 0 0 1-35.44726571 35.51677014zM206.92357428 940.14736602H39.07034557a35.44726567 35.44726567 0 0 1-35.44726569-35.44726571v-167.85322872a35.44726567 35.44726567 0 0 1 35.44726569-35.44726569h167.85322871a35.44726567 35.44726567 0 0 1 35.44726571 35.44726569v167.85322872a35.44726567 35.44726567 0 0 1-35.44726571 35.44726571z" p-id="4543"></path></svg>
