<?xml version="1.0" standalone="no"?><!DOCTYPE svg PUBLIC "-//W3C//DTD SVG 1.1//EN" "http://www.w3.org/Graphics/SVG/1.1/DTD/svg11.dtd"><svg t="1714031117977" class="icon" viewBox="0 0 1160 1024" version="1.1" xmlns="http://www.w3.org/2000/svg" p-id="8670" xmlns:xlink="http://www.w3.org/1999/xlink" width="226.5625" height="200"><path d="M134.690133 0.2048h880.64c74.274133 0 134.212267 60.0064 134.212267 134.280533V631.466667a134.075733 134.075733 0 0 1-134.212267 134.280533h-880.64A134.075733 134.075733 0 0 1 0.477867 631.466667V134.485333A135.031467 135.031467 0 0 1 134.690133 0.2048z m143.5648 234.222933v74.274134h95.0272V535.893333h92.842667V309.4528h95.6416V234.427733H278.254933z m295.662934 0l113.595733 301.397334h100.693333l112.093867-301.397334h-94.208l-67.1744 217.088-67.857067-217.088H573.917867z m-171.349334 607.778134h382.7712a57.344 57.344 0 0 1 57.1392 57.1392 57.344 57.344 0 0 1-57.1392 57.1392H402.568533a57.344 57.344 0 0 1-57.1392-57.1392 57.344 57.344 0 0 1 57.1392-57.1392z" fill="#00aeec" p-id="8671"></path></svg>